# xmcd CD database file
#
# Track frame offsets:
#	150
#	18467
#	40887
#	49612
#	61845
#	73965
#	98693
#	113150
#	126167
#	134330
#	145666
#	160377
#	176730
#	188956
#	203419
#	218907
#
# Disc length: 3144 seconds
#
# Revision: 0
# Processed by: cddbd v1.4PL0 Copyright (c) Steve Scherf et al.
# Submitted via: CDex 1.50Beta7
#
DISCID=e80c4610
DTITLE=Budapest Ragtime Band - The Best Of II
DYEAR=1999
DGENRE=Jazz
TTITLE0=Carmen
TTITLE1=Monti Csárdás
TTITLE2=Raggin' The Scale
TTITLE3="Russian" Song
TTITLE4=Sheik Of Araby
TTITLE5="Hungarian Dances"
TTITLE6=Old McDonald Had A Farm
TTITLE7=Big Fat Mama
TTITLE8=The Cactus Polka
TTITLE9=Cakewalk Parade
TTITLE10=Kék Duna Keringõ - An Der Schönen Blauen Donau
TTITLE11=Kardtánc - Sworddance
TTITLE12=Clink Clink Another Drink
TTITLE13=William Tell Overture
TTITLE14=Ooh Shoo Bee Doo Bee
TTITLE15=Fogd A Sétapálcát - Hold The Walkingstick
EXTD=YEAR: 1999
EXTT0=
EXTT1=
EXTT2=
EXTT3=
EXTT4=
EXTT5=
EXTT6=
EXTT7=
EXTT8=
EXTT9=
EXTT10=
EXTT11=
EXTT12=
EXTT13=
EXTT14=
EXTT15=
PLAYORDER=
